<?xml version="1.0" encoding="utf-8"?>
<!-- Generator: Adobe Illustrator 27.5.0, SVG Export Plug-In . SVG Version: 6.00 Build 0)  -->
<svg version="1.1" xmlns="http://www.w3.org/2000/svg" xmlns:xlink="http://www.w3.org/1999/xlink" x="0px" y="0px"
	 viewBox="0 0 500 500" style="enable-background:new 0 0 500 500;" xml:space="preserve">
<g id="Background_Complete">
	<rect x="416.779" y="398.494" style="fill:#EBEBEB;" width="33.122" height="0.25"/>
	<rect x="322.527" y="401.208" style="fill:#EBEBEB;" width="8.693" height="0.25"/>
	<rect x="396.586" y="389.208" style="fill:#EBEBEB;" width="19.192" height="0.25"/>
	<rect x="52.459" y="390.888" style="fill:#EBEBEB;" width="43.193" height="0.25"/>
	<rect x="104.556" y="390.888" style="fill:#EBEBEB;" width="6.333" height="0.25"/>
	<rect x="131.471" y="395.111" style="fill:#EBEBEB;" width="93.676" height="0.25"/>
	<g>
		<path style="fill:#EBEBEB;" d="M238.401,337.8H45.302c-3.147,0-5.708-2.561-5.708-5.708V60.66c0-3.147,2.561-5.708,5.708-5.708
			h193.099c3.146,0,5.707,2.561,5.707,5.708v271.432C244.108,335.239,241.547,337.8,238.401,337.8z M45.302,55.203
			c-3.01,0-5.458,2.448-5.458,5.458v271.432c0,3.01,2.448,5.458,5.458,5.458h193.099c3.009,0,5.457-2.448,5.457-5.458V60.66
			c0-3.009-2.448-5.458-5.457-5.458H45.302z"/>
		<g>
			<path style="fill:#EBEBEB;" d="M454.698,337.8H261.599c-3.146,0-5.707-2.561-5.707-5.708V60.66c0-3.147,2.561-5.708,5.707-5.708
				h193.099c3.148,0,5.708,2.561,5.708,5.708v271.432C460.406,335.239,457.845,337.8,454.698,337.8z M261.599,55.203
				c-3.009,0-5.457,2.448-5.457,5.458v271.432c0,3.01,2.448,5.458,5.457,5.458h193.099c3.01,0,5.458-2.448,5.458-5.458V60.66
				c0-3.009-2.448-5.458-5.458-5.458H261.599z"/>
		</g>
	</g>
	<rect y="382.398" style="fill:#EBEBEB;" width="500" height="0.25"/>
	<g>
		<g>
			<g>
				<rect x="285.222" y="94.369" style="fill:#FAFAFA;" width="162.042" height="288.018"/>
				<rect x="297.211" y="118.336" style="fill:#EBEBEB;" width="141.201" height="264.051"/>
				<rect x="368.596" y="123.546" style="fill:#FAFAFA;" width="66.427" height="253.631"/>
				<rect x="300.6" y="124.061" style="fill:#FAFAFA;" width="66.427" height="253.631"/>
				<rect x="356.081" y="101.148" style="fill:#F0F0F0;" width="21.367" height="7.294"/>
			</g>
			<g>
				<rect x="52.736" y="94.369" style="fill:#FAFAFA;" width="162.042" height="288.018"/>
				<rect x="64.725" y="118.336" style="fill:#EBEBEB;" width="141.201" height="264.051"/>
				<rect x="136.109" y="123.546" style="fill:#FAFAFA;" width="66.427" height="253.631"/>
				<rect x="68.114" y="124.061" style="fill:#FAFAFA;" width="66.427" height="253.631"/>
				<rect x="123.594" y="101.148" style="fill:#F0F0F0;" width="21.367" height="7.294"/>
			</g>
		</g>
		<g>
			<rect x="240.387" y="190.537" style="fill:#E6E6E6;" width="19.225" height="37.036"/>
			<path style="fill:#F5F5F5;" d="M250.207,198.376c3.321,0,6.013,2.692,6.013,6.013c0,3.321-2.692,6.012-6.013,6.012
				c-3.321,0-6.013-2.692-6.013-6.012C244.195,201.068,246.887,198.376,250.207,198.376z"/>
			<polygon style="fill:#E6E6E6;" points="253.43,205.371 247.003,205.371 250.32,200.847 			"/>
			<path style="fill:#F5F5F5;" d="M250.207,211.176c3.321,0,6.013,2.692,6.013,6.012c0,3.321-2.692,6.012-6.013,6.012
				c-3.321,0-6.013-2.692-6.013-6.012C244.195,213.868,246.887,211.176,250.207,211.176z"/>
			<polygon style="fill:#E6E6E6;" points="253.43,215.643 247.003,215.643 250.32,220.166 			"/>
		</g>
		<g>
			<g>
				<g>
					<g>
						<path style="fill:#EBEBEB;" d="M253.704,283.393c1.19-2.966,3.905-4.682,6.374-4.028c2.469,0.654,4.49,3.623,4.746,6.972
							c1.746-1.653,4.243-1.736,6.048-0.202c1.806,1.534,2.811,4.592,2.435,7.409c1.969-2.012,5.195-1.181,6.465,1.665
							c1.27,2.846,0.285,7.039-1.974,8.402c1.537,0.14,2.856,2.08,2.815,4.14c-0.041,2.06-1.435,3.904-2.975,3.936
							c1.557,0.045,2.99,1.779,3.178,3.847c0.189,2.068-0.891,4.212-2.395,4.755c1.582,0.888,1.982,4.18,0.693,5.693
							c-1.289,1.513-3.677,0.555-4.13-1.659c-0.241,0.639-0.987,0.789-1.358,0.272c-0.37-0.517-0.228-1.507,0.26-1.803
							c-0.713,1.271-2.532,0.682-2.731-0.884c0.536,3.626-2.883,7.038-5.329,5.318c0.706,1.515-0.291,3.629-1.578,4.101
							c-1.287,0.472-2.644-0.193-3.853-0.95c-1.209-0.757-2.444-1.637-3.779-1.613c-1.17,0.021-2.26,0.736-3.38,1.191
							c-3.557,1.443-7.671,0.069-10.303-3.442c-1.849,3.141-6.23,2.296-7.34-1.416c-0.286,1.781-1.53,3.204-2.889,3.305
							c-1.36,0.101-2.714-1.128-3.146-2.855c-0.028,0.794-0.056,1.587-0.084,2.382c-2.564,0.768-5.095-3.42-3.997-6.613
							c-1.83,0.042-3.561-1.957-3.798-4.385c-0.236-2.428,1.055-4.953,2.833-5.539c-3.016-1.072-5.317-5.029-5.35-9.203
							c-0.033-4.174,2.204-8.196,5.202-9.353c1.182-0.456,2.569-0.445,3.513,0.609c0.944,1.055,1.07,3.373,0.015,4.22
							c-0.906-3.742,0.439-8.226,3.027-10.093c2.588-1.867,6.128-0.907,7.967,2.162c-0.896-1.591-0.913-3.967-0.04-5.58
							c0.874-1.614,2.567-2.333,3.976-1.691c0.351-2.57,2.375-4.512,4.307-4.133c1.933,0.379,3.454,3.016,3.239,5.613
							c0.223-2.169,2.887-2.805,3.657-0.872C255.108,282.688,253.704,283.393,253.704,283.393z"/>
					</g>
				</g>
				<g>
					<g>
						<path style="fill:#FAFAFA;" d="M252.986,307.547c0.791-0.695,1.79-1.07,2.734-0.831c0.944,0.239,1.799,1.162,1.993,2.356
							c0.194,1.193-0.393,2.561-1.329,2.847c-1.139,0.348-2.279-0.84-3.439-0.632c-0.414,0.074-0.795,0.323-1.199,0.459
							c-1.667,0.564-3.319-0.814-4.702-2.119c-0.487-0.459-0.984-0.933-1.31-1.582c-0.325-0.649-0.445-1.52-0.139-2.184
							c0.426-0.924,1.435-1.06,2.275-0.939c1.685,0.244,3.312,1.104,4.633,2.451c-0.043-0.334-0.087-0.668-0.13-1.002
							L252.986,307.547z"/>
					</g>
					<g>
						<path style="fill:#FAFAFA;" d="M228.759,305.736c0.452-0.4,0.919-0.81,1.456-0.969c0.537-0.16,1.169-0.015,1.509,0.536
							c0.466,0.754,0.17,1.934-0.421,2.532c-0.591,0.597-1.376,0.764-2.124,0.91c-0.768,0.151-1.737,0.186-2.117-0.673
							c-0.276-0.625-0.054-1.452,0.359-1.942c0.413-0.49,0.971-0.723,1.511-0.943L228.759,305.736z"/>
					</g>
					<g>
						<path style="fill:#FAFAFA;" d="M267.032,289.79c1.543,0.816,2.735,2.622,3.095,4.688c0.108,0.624,0.093,1.408-0.338,1.739
							c-0.306,0.235-0.697,0.138-1.045,0.033c-1.478-0.444-2.957-0.888-4.435-1.333c0.708,0.345,1.433,0.702,1.998,1.342
							c0.565,0.64,0.945,1.633,0.76,2.564c-0.218,1.093-1.164,1.765-2.055,1.749c-0.891-0.016-1.72-0.576-2.444-1.233
							c-0.772-0.701-1.527-1.672-1.542-2.875c-0.015-1.203,1.182-2.318,1.912-1.547c-1.69-0.581-3.305-1.512-4.761-2.743
							c-0.527-0.446-1.046-0.947-1.378-1.63c-0.332-0.683-0.446-1.586-0.14-2.289c1.516-3.485,3.431,1.627,4.364,2.082
							C262.791,291.203,264.787,288.603,267.032,289.79z"/>
						<path style="fill:#FAFAFA;" d="M273.925,304.666c0.156,0.682,0.049,1.503-0.389,1.946c-0.438,0.443-1.215,0.294-1.416-0.368
							c0.99,0.391,2.047,0.841,2.664,1.896c0.617,1.055,0.465,2.9-0.521,3.307c-0.615,0.254-1.272-0.128-1.84-0.521
							c-1.606-1.112-3.141-2.391-4.582-3.82c0.44,1.286-0.619,2.744-1.722,2.864c-1.103,0.12-2.134-0.635-3.08-1.362
							c-1.161-0.892-2.491-2.255-2.186-3.929c0.266-1.457,1.739-2.102,2.871-1.675c1.132,0.427,1.984,1.584,2.778,2.692
							c-0.622-1.147,0.262-2.849,1.351-3.035c1.058-0.181,2.114,0.635,2.774,1.621c-1.233-0.856-1.509-3.089,0.142-3.347
							C271.843,300.764,273.666,303.533,273.925,304.666z"/>
						<path style="fill:#FAFAFA;" d="M240.079,299.656c0.931-0.441,2.099,0.326,2.349,1.544c0.251,1.218-0.472,2.608-1.454,2.799
							c0.722,0.078,1.415,0.535,1.879,1.24c0.259,0.392,0.453,0.895,0.395,1.4c-0.087,0.755-0.722,1.251-1.325,1.279
							c-0.603,0.027-1.177-0.296-1.726-0.612c0.595,0.071,1.226,0.158,1.698,0.622c0.472,0.464,0.677,1.446,0.253,1.979
							c-0.355,0.446-0.938,0.372-1.42,0.201c-1.081-0.383-2.086-1.1-2.906-2.07c-0.615,0.862-1.527,1.484-2.433,1.297
							c-0.906-0.187-1.675-1.408-1.391-2.513c0.202-0.788,0.854-1.285,1.504-1.385c0.65-0.1,1.302,0.126,1.925,0.381
							c-0.637-0.573-1.314-1.212-1.547-2.157c-0.233-0.944,0.271-2.213,1.052-2.137c0.877,0.087,1.325,1.598,2.018,2.141
							C239.805,302.651,238.205,300.541,240.079,299.656z"/>
						<g>
							<path style="fill:#FAFAFA;" d="M255.882,295.039c0.997,0.855,1.343,2.54,1.273,4.063c-0.076,1.681-0.68,3.476-1.899,4.151
								c-1.603,0.887-3.606-0.801-3.9-2.984c-0.294-2.183,0.838-4.402,2.39-5.424C253.746,294.847,254.884,294.185,255.882,295.039z
								"/>
						</g>
						<g>
							<path style="fill:#FAFAFA;" d="M244.687,293.226c-0.138,0.151-0.275,0.301-0.413,0.451c0.68-1.089,2.116-1.233,2.923-0.292
								c0.807,0.941,0.812,2.763,0.01,3.71c-0.802,0.947-2.238,0.816-2.924-0.267c-1.157,0.68-2.683,0.415-3.497-0.828
								c-0.814-1.243-0.63-3.41,0.48-4.207c1.11-0.797,2.798,0.399,2.68,2.006c0.161-0.226,0.321-0.453,0.482-0.679L244.687,293.226
								z"/>
						</g>
						<g>
							<path style="fill:#FAFAFA;" d="M232.331,295.751c0.793,0.987,1.617,2.041,1.907,3.4c0.29,1.358-0.189,3.087-1.267,3.434
								c-1.071,0.344-2.086-0.773-2.697-1.938c-0.551-1.052-0.972-2.362-0.655-3.559c0.317-1.197,1.68-1.906,2.361-0.984
								L232.331,295.751z"/>
						</g>
						<path style="fill:#FAFAFA;" d="M250.137,287.545c0.404-1.139,1.683-1.537,2.52-0.878c0.837,0.66,1.146,2.146,0.78,3.305
							c-0.366,1.16-1.306,1.946-2.287,2.082c-1.215,0.168-2.65-1.073-2.377-2.581c-0.524,0.873-1.464,1.22-2.326,1.112
							c-0.862-0.107-1.663-0.602-2.414-1.149c-1.02-0.743-2.107-1.891-2-3.373c0.086-1.181,0.989-2.091,1.922-2.2
							c0.933-0.11,1.852,0.439,2.565,1.209c0.56,0.605,1.026,1.352,1.631,1.882c0.606,0.53,1.43,0.814,2.078,0.372L250.137,287.545z
							"/>
					</g>
				</g>
			</g>
			<path style="fill:#E0E0E0;" d="M246.775,322.091c2.293,6.715,1.127,14.511-3.031,20.261c4.477,0,8.487,0.305,12.964,0.305
				c-2.012-6.888-2.499-14.218-1.363-21.303C252.857,321.353,249.262,322.091,246.775,322.091z"/>
			<g>
				<g>
					<polygon style="fill:#EBEBEB;" points="230.872,382.15 269.618,382.15 273.411,343.099 227.079,343.099 					"/>
					<polygon style="fill:#F5F5F5;" points="224.078,345.114 276.796,345.114 277.744,339.92 223.129,339.92 					"/>
				</g>
			</g>
		</g>
	</g>
</g>
<g id="Background_Simple" style="display:none;">
	<g style="display:inline;">
		<g>
			<path style="fill:#407BFF;" d="M235.322,82.037c-48.179,9.719-91.911,40.039-119.241,81.772
				c-10.711,16.356-19.161,35.086-19.262,54.772c-0.146,28.58,17.638,54.792,40.354,71.435
				c22.716,16.643,49.968,25.296,76.814,33.221c0.282,17.977,3.123,35.999,14.189,49.969c11.912,15.037,32.584,19.427,51.504,19.212
				c24.245-0.275,48.58-6.617,69.303-19.494c20.723-12.877,37.667-32.423,46.415-55.553c12.724-33.639,7.57-71.331,0.625-106.693
				c-4.714-24.004-10.231-48.044-20.152-70.325c-7.351-16.509-17.918-31.557-31.754-42.906
				C313.356,72.213,253.599,78.35,235.322,82.037z"/>
		</g>
		<g style="opacity:0.9;">
			<path style="fill:#FFFFFF;" d="M235.322,82.037c-48.179,9.719-91.911,40.039-119.241,81.772
				c-10.711,16.356-19.161,35.086-19.262,54.772c-0.146,28.58,17.638,54.792,40.354,71.435
				c22.716,16.643,49.968,25.296,76.814,33.221c0.282,17.977,3.123,35.999,14.189,49.969c11.912,15.037,32.584,19.427,51.504,19.212
				c24.245-0.275,48.58-6.617,69.303-19.494c20.723-12.877,37.667-32.423,46.415-55.553c12.724-33.639,7.57-71.331,0.625-106.693
				c-4.714-24.004-10.231-48.044-20.152-70.325c-7.351-16.509-17.918-31.557-31.754-42.906
				C313.356,72.213,253.599,78.35,235.322,82.037z"/>
		</g>
	</g>
</g>
<g id="Shadow">
	<ellipse id="_x3C_Path_x3E__359_" style="fill:#F5F5F5;" cx="250" cy="415.693" rx="193.889" ry="11.323"/>
</g>
<g id="Device">
	<g>
		<g>
			<g>
				<g>
					<path style="fill:#407BFF;" d="M388.861,118.378h-8.343c8.397,0,14.848,6.807,14.408,15.205l-13.272,253.245
						c-0.44,8.397-7.604,15.204-16.001,15.204h8.343c8.397,0,15.561-6.807,16.001-15.204l13.272-253.245
						C403.709,125.185,397.259,118.378,388.861,118.378z"/>
					<path style="opacity:0.1;fill:#FFFFFF;" d="M388.861,118.378h-8.343c8.397,0,14.848,6.807,14.408,15.205l-13.272,253.245
						c-0.44,8.397-7.604,15.204-16.001,15.204h8.343c8.397,0,15.561-6.807,16.001-15.204l13.272-253.245
						C403.709,125.185,397.259,118.378,388.861,118.378z"/>
				</g>
				<path style="fill:#407BFF;" d="M371.507,402.032H269.359c-8.397,0-14.848-6.807-14.408-15.204l13.272-253.245
					c0.44-8.397,7.604-15.205,16.001-15.205h102.148c8.397,0,14.848,6.807,14.408,15.205l-13.272,253.245
					C387.069,395.225,379.905,402.032,371.507,402.032z"/>
				<path style="opacity:0.4;fill:#FFFFFF;" d="M371.507,402.032H269.359c-8.397,0-14.848-6.807-14.408-15.204l13.272-253.245
					c0.44-8.397,7.604-15.205,16.001-15.205h102.148c8.397,0,14.848,6.807,14.408,15.205l-13.272,253.245
					C387.069,395.225,379.905,402.032,371.507,402.032z"/>
				<g>
					<path style="fill:#263238;" d="M284.587,123.256c-5.831,0-10.824,4.747-11.129,10.581l-13.272,253.245
						c-0.142,2.716,0.768,5.253,2.564,7.145c1.79,1.887,4.266,2.925,6.972,2.925h102.148c5.831,0,10.823-4.746,11.129-10.581
						l13.272-253.245c0.142-2.715-0.768-5.253-2.564-7.145c-1.79-1.886-4.266-2.925-6.972-2.925H284.587z"/>
				</g>
				<g>
					<g>
						<path style="fill:#407BFF;" d="M326.5,300.575c5.142,0,7.206,7.752,9.056,12.612c0.83,2.181,2.991,3.854,2.991,3.854
							s-2.385,1.681-4.077,4.554c-2.843,4.829-6.181,11.911-10.851,11.911c-4.67,0-6.769-7.082-8.767-11.911
							c-1.189-2.873-3.28-4.554-3.28-4.554s2.453-1.673,3.665-3.854C317.938,308.327,321.358,300.575,326.5,300.575z"/>
					</g>
					<g>
						<path style="fill:#407BFF;" d="M271.844,312.642c1.743,0,2.49,2.081,3.148,3.386c0.295,0.586,1.038,1.035,1.038,1.035
							s-0.798,0.451-1.354,1.223c-0.934,1.297-2.022,3.198-3.605,3.198s-2.338-1.902-3.045-3.198
							c-0.421-0.772-1.14-1.223-1.14-1.223s0.821-0.449,1.219-1.035C268.99,314.724,270.101,312.642,271.844,312.642z"/>
					</g>
					<g>
						<path style="fill:#407BFF;" d="M379.32,312.642c1.743,0,2.491,2.081,3.148,3.386c0.295,0.586,1.038,1.035,1.038,1.035
							s-0.798,0.451-1.354,1.223c-0.934,1.297-2.022,3.198-3.605,3.198s-2.338-1.902-3.045-3.198
							c-0.421-0.772-1.14-1.223-1.14-1.223s0.821-0.449,1.219-1.035C376.465,314.724,377.577,312.642,379.32,312.642z"/>
					</g>
					<g>
						<path style="fill:#407BFF;" d="M294.937,308.107c6.909,0,10.226,4.206,13.053,6.843c1.269,1.183,4.289,2.091,4.289,2.091
							s-3.087,0.912-5.159,2.471c-3.482,2.62-7.471,6.462-13.747,6.462c-6.276,0-9.592-3.843-12.616-6.462
							c-1.799-1.559-4.727-2.471-4.727-2.471s3.179-0.908,4.655-2.091C283.975,312.313,288.028,308.107,294.937,308.107z"/>
					</g>
					<g>
						<path style="fill:#407BFF;" d="M357.02,308.107c6.909,0,10.226,4.206,13.053,6.843c1.269,1.183,4.289,2.091,4.289,2.091
							s-3.087,0.912-5.159,2.471c-3.482,2.62-7.471,6.462-13.747,6.462c-6.275,0-9.592-3.843-12.616-6.462
							c-1.799-1.559-4.727-2.471-4.727-2.471s3.179-0.908,4.655-2.091C346.058,312.313,350.111,308.107,357.02,308.107z"/>
					</g>
					<g style="opacity:0.2;">
						<path style="fill:#FFFFFF;" d="M313.288,305.899c3.486,0,4.886,5.256,6.14,8.551c0.563,1.479,2.028,2.613,2.028,2.613
							s-1.617,1.14-2.764,3.088c-1.928,3.274-4.191,8.076-7.358,8.076c-3.166,0-4.589-4.802-5.944-8.076
							c-0.806-1.948-2.224-3.088-2.224-3.088s1.663-1.134,2.485-2.613C307.483,311.155,309.802,305.899,313.288,305.899z"/>
					</g>
					<g style="opacity:0.2;">
						<path style="fill:#FFFFFF;" d="M294.236,314.62c3.486,0,5.244,1.15,6.724,1.871c0.664,0.324,2.206,0.572,2.206,0.572
							s-1.539,0.249-2.553,0.676c-1.704,0.717-3.639,1.768-6.805,1.768s-4.917-1.051-6.496-1.768
							c-0.939-0.426-2.435-0.676-2.435-0.676s1.586-0.248,2.307-0.572C288.79,315.77,290.75,314.62,294.236,314.62z"/>
					</g>
					<g style="opacity:0.2;">
						<path style="fill:#FFFFFF;" d="M276.122,316.002c3.486,0,5.301,0.5,6.817,0.813c0.68,0.141,2.235,0.248,2.235,0.248
							s-1.527,0.108-2.52,0.293c-1.669,0.311-3.551,0.768-6.718,0.768s-4.969-0.456-6.583-0.768
							c-0.96-0.185-2.468-0.293-2.468-0.293s1.573-0.108,2.278-0.248C270.733,316.502,272.636,316.002,276.122,316.002z"/>
					</g>
					<g style="opacity:0.2;">
						<path style="fill:#FFFFFF;" d="M356.616,314.62c-3.486,0-5.446,1.15-7.052,1.871c-0.721,0.324-2.307,0.572-2.307,0.572
							s1.496,0.249,2.435,0.676c1.579,0.717,3.33,1.768,6.496,1.768s5.101-1.051,6.805-1.768c1.014-0.426,2.553-0.676,2.553-0.676
							s-1.542-0.248-2.206-0.572C361.86,315.77,360.102,314.62,356.616,314.62z"/>
					</g>
					<g style="opacity:0.2;">
						<path style="fill:#FFFFFF;" d="M374.487,316.002c-3.486,0-5.389,0.5-6.959,0.813c-0.705,0.141-2.278,0.248-2.278,0.248
							s1.508,0.108,2.468,0.293c1.614,0.311,3.417,0.768,6.583,0.768s5.049-0.456,6.718-0.768c0.993-0.185,2.52-0.293,2.52-0.293
							s-1.555-0.108-2.235-0.248C379.788,316.502,377.973,316.002,374.487,316.002z"/>
					</g>
					<g style="opacity:0.2;">
						<path style="fill:#FFFFFF;" d="M339.089,305.899c3.486,0,4.886,5.256,6.14,8.551c0.563,1.479,2.028,2.613,2.028,2.613
							s-1.617,1.14-2.764,3.088c-1.928,3.274-4.191,8.076-7.358,8.076c-3.166,0-4.589-4.802-5.944-8.076
							c-0.806-1.948-2.224-3.088-2.224-3.088s1.663-1.134,2.485-2.613C333.284,311.155,335.603,305.899,339.089,305.899z"/>
					</g>
					<g style="opacity:0.2;">
						<path style="fill:#FFFFFF;" d="M325.425,314.62c1.432,0,2.095,1.15,2.665,1.872c0.256,0.324,0.877,0.572,0.877,0.572
							s-0.645,0.249-1.083,0.676c-0.737,0.717-1.586,1.768-2.886,1.768c-1.3,0-1.965-1.051-2.577-1.768
							c-0.364-0.427-0.965-0.676-0.965-0.676s0.664-0.248,0.977-0.572C323.129,315.77,323.994,314.62,325.425,314.62z"/>
					</g>
				</g>
				<g style="opacity:0.1;">
					<path style="fill:#FFFFFF;" d="M325.745,397.153h-40.741L323.4,123.256h32.788c2.988,0,5.641,1.252,7.496,3.253
						L325.745,397.153z"/>
					<polygon style="fill:#FFFFFF;" points="277.692,397.153 268.527,397.153 306.923,123.256 316.088,123.256 					"/>
				</g>
			</g>
			<g>
				<g style="opacity:0.8;">
					
						<ellipse transform="matrix(0.7194 -0.6946 0.6946 0.7194 -64.9262 292.1214)" style="fill:#FFFFFF;" cx="329.061" cy="226.412" rx="53.444" ry="49.835"/>
				</g>
				<g>
					<g>
						<path style="fill:#407BFF;" d="M325.694,270.436c-24.257,0-42.611-19.734-40.915-43.991s22.81-43.991,47.067-43.991
							c24.257,0,42.611,19.734,40.915,43.991S349.95,270.436,325.694,270.436z M331.654,185.203
							c-22.741,0-42.536,18.501-44.127,41.243c-1.59,22.742,15.617,41.243,38.359,41.243c22.741,0,42.536-18.501,44.127-41.243
							C371.603,203.704,354.395,185.203,331.654,185.203z"/>
					</g>
					<g>
						<g>
							<path style="fill:#407BFF;" d="M322.289,214.684l0.634-9.07c0.318-4.54,4.255-8.221,8.795-8.221l0,0
								c4.54,0,7.963,3.68,7.646,8.221l-1.251,17.888c-0.318,4.54-4.255,8.221-8.795,8.221l0,0c-4.54,0-7.963-3.68-7.646-8.221
								L322.289,214.684"/>
						</g>
						<g>
							<path style="fill:#407BFF;" d="M328.658,241.165c-8.193,0-14.393-6.666-13.82-14.859l1.012-14.465
								c0.053-0.759,0.711-1.374,1.47-1.374s1.331,0.615,1.278,1.374l-1.011,14.465c-0.467,6.678,4.586,12.111,11.264,12.111
								c6.678,0,12.491-5.433,12.958-12.111l1.011-14.465c0.053-0.759,0.711-1.374,1.47-1.374c0.759,0,1.331,0.615,1.278,1.374
								l-1.012,14.465C343.983,234.499,336.851,241.165,328.658,241.165z"/>
						</g>
						<g>
							<path style="fill:#407BFF;" d="M327.383,259.392c-0.759,0-1.331-0.615-1.278-1.374l1.275-18.227
								c0.053-0.759,0.711-1.374,1.47-1.374c0.759,0,1.331,0.615,1.278,1.374l-1.274,18.227
								C328.8,258.776,328.142,259.392,327.383,259.392z"/>
						</g>
						<g>
							<path style="fill:#407BFF;" d="M336.496,259.392H318.27c-0.759,0-1.331-0.615-1.278-1.374
								c0.053-0.759,0.711-1.374,1.47-1.374h18.227c0.759,0,1.331,0.615,1.278,1.374
								C337.914,258.776,337.255,259.392,336.496,259.392z"/>
						</g>
					</g>
				</g>
			</g>
		</g>
		<g>
			
				<line style="fill:none;stroke:#407BFF;stroke-linecap:round;stroke-linejoin:round;stroke-miterlimit:10;" x1="406.458" y1="155.084" x2="404.474" y2="190.611"/>
			
				<line style="fill:none;stroke:#407BFF;stroke-linecap:round;stroke-linejoin:round;stroke-miterlimit:10;" x1="407.362" y1="138.9" x2="406.838" y2="148.275"/>
		</g>
	</g>
</g>
<g id="Speech_Bubble">
	<g>
		<g>
			<g id="freepik--speech-bubbles--inject-120_2_">
				<path style="fill:#FFFFFF;stroke:#407BFF;stroke-miterlimit:10;" d="M265.348,80.771l-2.437,35.507
					c-0.011,0.221-0.04,0.444-0.088,0.667c-0.48,2.244-2.676,3.992-4.905,3.905l-8.076-0.044c0.862,5.038,7.071,11.818,7.071,11.818
					s-11.773-1.661-18.275-11.889l-57.856-0.348c-2.617-0.062-4.468-2.024-4.364-4.629l2.43-35.512
					c0.011-0.221,0.04-0.445,0.088-0.667c0.48-2.244,2.676-3.992,4.905-3.905l77.151,0.46
					C263.606,76.201,265.452,78.166,265.348,80.771z"/>
			</g>
		</g>
		<g>
			<line style="fill:none;stroke:#407BFF;stroke-miterlimit:10;" x1="186.503" y1="87.561" x2="255.29" y2="87.561"/>
			<line style="fill:none;stroke:#407BFF;stroke-miterlimit:10;" x1="185.854" y1="97.369" x2="254.642" y2="97.369"/>
			<line style="fill:none;stroke:#407BFF;stroke-miterlimit:10;" x1="185.206" y1="107.177" x2="253.993" y2="107.177"/>
		</g>
	</g>
</g>
<g id="Voice">
	<g>
		<g>
			<path style="fill:none;stroke:#407BFF;stroke-linecap:round;stroke-linejoin:round;stroke-miterlimit:10;" d="M171.703,142.185
				c3.145-1.678,6.29-3.356,9.436-5.035"/>
			
				<line style="fill:none;stroke:#407BFF;stroke-linecap:round;stroke-linejoin:round;stroke-miterlimit:10;" x1="173.233" y1="146.488" x2="183.736" y2="146.488"/>
			<path style="fill:none;stroke:#407BFF;stroke-linecap:round;stroke-linejoin:round;stroke-miterlimit:10;" d="M179.445,155.096
				c0.455,0.243,0.911,0.486,1.366,0.729"/>
			<path style="fill:none;stroke:#407BFF;stroke-linecap:round;stroke-linejoin:round;stroke-miterlimit:10;" d="M171.375,150.791
				c2.177,1.162,3.815,2.035,5.992,3.197"/>
		</g>
		<g>
			<path style="fill:none;stroke:#407BFF;stroke-linecap:round;stroke-linejoin:round;stroke-miterlimit:10;" d="M206.245,152.152
				c-1.678-3.145-3.356-6.29-5.035-9.436"/>
			
				<line style="fill:none;stroke:#407BFF;stroke-linecap:round;stroke-linejoin:round;stroke-miterlimit:10;" x1="210.548" y1="150.622" x2="210.548" y2="140.119"/>
			<path style="fill:none;stroke:#407BFF;stroke-linecap:round;stroke-linejoin:round;stroke-miterlimit:10;" d="M219.157,144.411
				c0.243-0.456,0.486-0.911,0.729-1.366"/>
			<path style="fill:none;stroke:#407BFF;stroke-linecap:round;stroke-linejoin:round;stroke-miterlimit:10;" d="M214.851,152.48
				c1.162-2.177,2.035-3.814,3.197-5.992"/>
		</g>
	</g>
</g>
<g id="Character">
	<g>
		<g>
			<path style="fill:#263238;" d="M153.501,114.54c-1.559-4.574-7.125-5.917-11.404-4.113c-4.279,1.804-18.764,8.794-15.194,22.949
				c0.516,2.046,2.156,4.13,1.234,6.1c-4.523,9.668-15.042,4.833-22.089,13.429c-16.477,20.099,4.933,27.509,3.203,32.654
				c-1.73,5.145-6.189,9.454-11.056,9.653c6.583,2.291,12.387,4.782,19.401,3.988c7.014-0.794,14.068-3.828,19.318-9.319
				c5.25-5.49,8.479-13.574,7.669-21.244c-0.594-5.62-8.363-4.825-4.51-8.84c2.555-2.661,6.001-3.901,8.926-6.026
				c6.757-4.908,10.046-13.957,11.823-22.566c0.753-3.645,1.31-7.481,0.38-10.969C160.273,116.748,156.837,114.3,153.501,114.54z"/>
			<g>
				<g>
					<path style="fill:#B25B52;" d="M175.305,191.191c-6.657-6.546-11.421-10.903-11.421-10.903
						c-2.069-1.441-0.879-6.204,0.739-8.138c1.618-1.934,4.398-2.808,6.832-2.147c0,0,10.007,12.789,18.221,19.523l1.971-24.975
						c2.797-0.237,2.157,0.238,4.954,0c0,0,1.681,19.72,2.04,29.925c0.099,2.824-1.5,5.544-4.156,6.51
						c-0.399,0.145-0.815,0.247-1.24,0.287C189.943,201.582,182.997,198.755,175.305,191.191z"/>
					<g>
						<path style="fill:#407BFF;" d="M190.1,185.566c-0.336,8.497-1.113,10.414,1.642,18.459c-2.009,1.012-4.545,0.884-6.442-0.324
							c-1.897-1.208-3.249-4.032-3.182-6.28c-7.265-4.371-9.489-6.763-15.992-15.795c-1.968-2.733-2.363-6.388-0.77-9.356
							c0.909-1.693,2.235-3.208,4.028-3.94c1.534-0.627,2.804-0.01,4.138,0.973l10.323,13.586c0.059-0.193,0.637-1.59,0.902-1.737
							L190.1,185.566z"/>
						<path style="opacity:0.7;" d="M190.1,185.566c-0.336,8.497-1.113,10.414,1.642,18.459c-2.009,1.012-4.545,0.884-6.442-0.324
							c-1.897-1.208-3.249-4.032-3.182-6.28c-7.265-4.371-9.489-6.763-15.992-15.795c-1.968-2.733-2.363-6.388-0.77-9.356
							c0.909-1.693,2.235-3.208,4.028-3.94c1.534-0.627,2.804-0.01,4.138,0.973l10.323,13.586c0.059-0.193,0.637-1.59,0.902-1.737
							L190.1,185.566z"/>
					</g>
					<path style="fill:#B25B52;" d="M203.187,167.71c-1.744,1.201-8.066,1.158-8.882,0.772c-3.967-1.88-3.314-7.342,1.076-7.329
						c1.795,0.005,5.783,0.99,5.783,0.99c1.155-1.122,5.536-3.113,6.276-2.699c0.74,0.414,1.001,1.395,0.832,2.226
						c-0.169,0.83-0.675,1.547-1.169,2.236C205.976,165.479,204.782,166.612,203.187,167.71z"/>
				</g>
				<g>
					<g>
						<g>
							<g id="freepik--Character--inject-5_2_">
								<path d="M148.237,261.784c1.587,6.504,3.626,13.719,6.227,21.569c0.757-15.813,5.037-36.985,5.175-37.705L148.237,261.784z"
									/>
								<g>
									<g>
										<path style="fill:#B25B52;" d="M164.568,246.435l-21.999,82.682l-29.978,60.514l-7.88-2.74c0,0,4.493-24.53,13.489-47.062
											c2.075-5.198,6.04-10.518,7.358-14.774c1.155-3.73-0.669-45.457,4.654-55.157c0,0-5.226-15.545,4.258-28.918
											L164.568,246.435z"/>
									</g>
									<polygon style="fill:#B25B52;" points="107.614,401.702 102.053,398.805 104.179,388.752 106.584,379.642 115.644,382.051 
										111.401,392.452 									"/>
									<path style="fill:#263238;" d="M111.023,416.543c-0.593-1.116-1.387-2.113-2.34-2.942l0,0c0,0-1.915-4.662,0.679-15.179
										l-3.847-2.954c-1.351-0.994-3.176-1.044-4.58-0.128c-0.194,0.125-0.367,0.279-0.513,0.457
										c-0.658,0.948-1.255,1.936-1.789,2.959c-1.762,3.503-3.311,7.11-4.639,10.799l0.77,0.354l3.18-6.668
										c1.048-2.279,1.715,1.204,1.172,3.892c-0.543,2.687-0.59,5.804,4.423,8.06C109.358,417.807,111.91,418.615,111.023,416.543
										z"/>
									<path style="fill:#B25B52;" d="M110.087,394.57c0,0-0.989,4.89-1.631,10.506c-0.471,2.83-0.395,5.724,0.227,8.524
										c0,0-4.073-0.928-4.635-4.174c-0.562-3.246,0.882-12.88-3.153-14.055c0.57-0.51,1.197-0.954,1.868-1.321
										C103.835,393.447,110.087,394.57,110.087,394.57z"/>
								</g>
								<g>
									<g>
										<path style="fill:#B25B52;" d="M167.965,242.113l14.849,81.956l6.745,67.195l-8.132,1.864c0,0-9.223-23.17-13.569-47.039
											c-1.003-5.507-0.469-12.12-1.613-16.426c-1.003-3.774-2.817-5.99-6.009-14.419c-3.861-10.195-8.273-23.957-8.915-35.003
											c0,0-12.685-10.395-11.753-26.763L167.965,242.113z"/>
									</g>
									<polygon style="fill:#B25B52;" points="191.754,404.135 185.504,404.635 181.965,394.988 179.164,385.992 188.119,383.22 
										190.05,394.287 									"/>
									<path style="fill:#263238;" d="M202.526,414.899c-1.095-0.63-2.297-1.054-3.546-1.249l0,0c0,0-4.098-2.933-7.488-13.222
										l-4.829-0.459c-1.672-0.124-3.246,0.802-3.948,2.325c-0.098,0.209-0.163,0.431-0.192,0.66
										c-0.054,1.152-0.035,2.307,0.056,3.457c0.368,3.904,0.971,7.782,1.806,11.614l0.84-0.109l-0.847-7.338
										c-0.322-2.487,2.093,0.109,3.061,2.675c0.968,2.565,2.583,5.231,8.029,4.479
										C201.786,416.854,204.378,416.183,202.526,414.899z"/>
									<path style="fill:#B25B52;" d="M190.061,396.78c0,0,1.76,4.668,4.199,9.768c1.103,2.648,2.706,5.059,4.72,7.102
										c0,0-3.944,1.377-6.144-1.074c-2.2-2.452-6.094-11.381-10.138-10.234c0.212-0.736,0.507-1.444,0.881-2.112
										C184.167,399.149,190.061,396.78,190.061,396.78z"/>
								</g>
								<g>
									<path style="fill:#407BFF;" d="M180.314,300.801c0,0-24.119,7.764-54.222,1.615c0,0-3.873-39.167,2.46-56.767
										c7.753-21.546,7.753-21.546,7.753-21.546s35.913-2.095,35.913,0.207L180.314,300.801z"/>
								</g>
								<path style="fill:#407BFF;" d="M175.091,195.602c-0.264,6.79-1.608,13.92-3.319,24.57h0.009
									c0.426-0.06,0.823,0.26,0.87,0.71c0,0.01,0.01,0.03,0.01,0.05c0.075,0.77,0.142,1.52,0.217,2.29
									c0.047,0.47-0.274,0.89-0.719,0.95c-12.029,1.4-24.181,1.38-36.201-0.07c-0.473-0.12-0.766-0.61-0.662-1.11
									c0.01-0.04,0.019-0.07,0.028-0.11c0.293-0.74,0.596-1.47,0.87-2.21c0.132-0.33,0.444-0.53,0.775-0.5
									c0.114,0.01,0.236,0.03,0.35,0.04c0.539-9.82-0.813-21.35-7.017-43.15c-1.504-5.26,1.844-10.33,7.187-10.86
									c1.428-0.15,2.95-0.27,4.501-0.35c5.447-0.38,10.913-0.38,16.37,0c1.74,0.17,3.622,0.39,5.39,0.63
									c6.355,0.88,10.1,6.05,11.273,13.18C175.687,186.383,175.45,190.143,175.091,195.602z"/>
								<path style="fill:#B25B52;" d="M143.901,146.382c1.504,5.535,3.349,15.776-0.268,19.494c0,0,4.779,3.837,14.91,7.525
									c3.025-0.77,2.387-7.525,2.387-7.525c-6.329-1.485-6.513-6.089-5.747-10.416L143.901,146.382z"/>
								<path style="fill:#407BFF;" d="M160.47,165.562c9.408,12.077,9.546,30.093,7.153,88.714
									c-0.209,5.108,4.444,4.555,9.492,3.747c6.57-1.052,6.57-1.052,6.57-1.052s-7.447-17.992-5.602-44.838
									c1.845-26.846,0.565-36.333-3.789-41.297C169.938,165.872,160.47,165.562,160.47,165.562z"/>
								<path style="opacity:0.6;" d="M160.47,165.562c9.408,12.077,9.546,30.093,7.153,88.714
									c-0.209,5.108,4.444,4.555,9.492,3.747c6.57-1.052,6.57-1.052,6.57-1.052s-7.447-17.992-5.602-44.838
									c1.845-26.846,0.565-36.333-3.789-41.297C169.938,165.872,160.47,165.562,160.47,165.562z"/>
								<path style="fill:#407BFF;" d="M143.237,165.008c0,0,6.55,5.821,8.506,19.853c3.116,22.635,2.14,44.473,0.968,69.391
									c-0.172,3.664-3.862,6.081-7.299,4.798c0,0-20.317-0.633-26.023-5.547c-0.406-7.51,11.826-24.073,10.553-43.927
									c-1.273-19.853-3.736-37.151-1.172-40.888C131.336,164.953,143.237,165.008,143.237,165.008z"/>
								<path style="opacity:0.6;" d="M143.237,165.008c0,0,6.55,5.821,8.506,19.853c3.116,22.635,2.14,44.473,0.968,69.391
									c-0.172,3.664-3.862,6.081-7.299,4.798c0,0-20.317-0.633-26.023-5.547c-0.406-7.51,11.826-24.073,10.553-43.927
									c-1.273-19.853-3.736-37.151-1.172-40.888C131.336,164.953,143.237,165.008,143.237,165.008z"/>
								<path style="opacity:0.2;" d="M148.505,150.081l6.689,5.369c-0.192,1.013-0.294,2.041-0.304,3.072
									c-2.399-0.341-5.849-2.943-6.292-5.434C148.387,152.1,148.356,151.081,148.505,150.081z"/>
								<path style="fill:#263238;" d="M156.087,126c6.552,8.768,9.465,20.172,7.92,31.008c3.175-6.021,4.486-13.078,4.688-19.882
									c0.102-3.418-0.098-6.96-1.618-10.024c-1.519-3.064-4.636-5.546-8.053-5.407c-1.221,0.05-2.472,0.459-3.31,1.348
									C154.877,123.934,155.356,125.021,156.087,126z"/>
								<path style="fill:#B25B52;" d="M139.141,135.2c1.688,8.995,2.214,12.833,7.38,17.141c7.722,6.458,18.331,3.063,19.374-6.107
									c0.923-8.257-2.002-21.578-11.274-24.549c-6.082-2.223-12.815,0.906-15.038,6.988
									C138.819,130.763,138.666,133.027,139.141,135.2z"/>
								<path style="fill:#263238;" d="M154.758,137.263c0.217,0.733,0.785,1.248,1.255,1.143c0.47-0.105,0.688-0.788,0.48-1.523
									c-0.208-0.734-0.786-1.257-1.256-1.153C154.768,135.836,154.549,136.52,154.758,137.263z"/>
								<path style="fill:#263238;" d="M162.406,135.42c0.217,0.733,0.776,1.249,1.254,1.144c0.479-0.106,0.689-0.788,0.471-1.521
									c-0.217-0.733-0.776-1.249-1.254-1.144C162.398,134.004,162.187,134.678,162.406,135.42z"/>
								<path style="fill:#263238;" d="M162.684,133.982l1.604-0.901C164.288,133.081,163.789,134.671,162.684,133.982z"/>
								<path style="fill:#9D2724;" d="M160.263,137.181c1.144,1.542,2.481,2.932,3.977,4.136c-0.697,1.116-2.458,1.061-2.458,1.061
									L160.263,137.181z"/>
								<path style="fill:#B25B52;" d="M139.676,144.306c0.936,1.505,2.464,2.543,4.207,2.86c2.141,0.295,2.768-2.196,1.771-4.493
									c-0.923-2.066-3.072-4.705-5.037-3.939C138.652,139.499,138.412,142.341,139.676,144.306z"/>
								<path style="fill:#263238;" d="M151.327,134.325c0.11-0.037,0.197-0.122,0.237-0.23c0.372-1.042,1.244-1.826,2.32-2.085
									c0.222-0.03,0.378-0.235,0.347-0.457c-0.002-0.016-0.005-0.032-0.009-0.048c-0.06-0.244-0.298-0.402-0.546-0.36
									c-1.369,0.303-2.488,1.286-2.963,2.606c-0.076,0.233,0.046,0.484,0.277,0.566
									C151.096,134.367,151.218,134.369,151.327,134.325z"/>
								<path style="fill:#263238;" d="M164.099,131.064c0.229-0.009,0.408-0.202,0.399-0.431c-0.005-0.132-0.072-0.253-0.181-0.327
									c-1.083-0.985-2.564-1.407-4.003-1.141c-0.222,0.059-0.354,0.286-0.295,0.508c0.003,0.009,0.005,0.018,0.008,0.027
									c0.077,0.238,0.324,0.377,0.568,0.319c1.142-0.193,2.309,0.152,3.163,0.935
									C163.853,131.033,163.975,131.072,164.099,131.064z"/>
								<path style="fill:#263238;" d="M155.037,135.825l1.604-0.901C156.641,134.924,156.141,136.506,155.037,135.825z"/>
								<g>
									<path style="fill:#263238;" d="M161.995,145.356c0,0-2.497-0.862-9.657-1.62c0.601,2.244,1.981,4.148,5.654,4.538
										c1.815,0.37,3.586-0.801,3.956-2.616C161.968,145.558,161.984,145.457,161.995,145.356z"/>
									<path style="fill:#9D2724;" d="M156.484,146.373c1.419,0.073,2.779,0.59,3.886,1.48c-0.729,0.371-1.553,0.51-2.363,0.398
										c-1.417-0.068-2.775-0.586-3.878-1.478C154.852,146.393,155.676,146.253,156.484,146.373z"/>
									<path style="fill:#FAFAFA;" d="M161.674,145.263c-0.203,0.521-0.68,0.887-1.237,0.947
										c-2.125-0.236-4.227-0.647-6.284-1.227c-0.671-0.138-1.23-0.6-1.492-1.234C155.7,144.02,158.713,144.527,161.674,145.263z"
										/>
								</g>
							</g>
							<path style="fill:#263238;" d="M149.523,123.861c-5.134,10.311-5.909,22.62-2.105,33.469
								c-4.552-5.573-7.349-12.577-8.929-19.54c-0.794-3.498-1.295-7.183-0.312-10.634c0.983-3.452,3.765-6.618,7.389-7.147
								c1.295-0.189,2.694-0.014,3.755,0.737C150.382,121.496,150.096,122.71,149.523,123.861z"/>
						</g>
					</g>
					<path style="fill:#B25B52;" d="M119.392,199.465l-9.191,31.883l-8.086,0.047l-4.462,2.623
						c-1.229,0.722-1.534,2.357-0.655,3.479c0.62,0.793,1.384,1.665,2.206,2.369c0.498,0.427,1.153,0.623,1.805,0.548l5.129-0.591
						c1.979-0.228,3.857-0.999,5.425-2.227l2.548-1.996c0,0,11.13-22.919,17.623-36.046c-1.277-2.133-3.987-3.249-6.47-3.353
						C122.781,196.095,119.773,197.009,119.392,199.465z"/>
					<g>
						<path style="fill:#407BFF;" d="M129.339,167.36c-5.394,2.532-8.29,8.507-9.687,14.3c-1.397,5.793-1.737,11.882-4.022,17.385
							c-1.221-0.423-3.526,0.507-4.137,1.645c-0.611,1.138-0.653,2.485-0.677,3.776c-0.024,1.291-0.058,2.637-0.657,3.781
							c3.749,4.136,12.798,5.697,18.374,5.973c2.57-3.556,3.144-8.583,2.407-12.909c3.3-8.574,5.14-17.794,6.609-26.863
							c0.502-3.1-0.941-7.595-5.351-7.592C131.566,166.824,129.911,167.091,129.339,167.36z"/>
					</g>
					<g style="opacity:0.6;">
						<path d="M129.339,167.36c-5.394,2.532-8.29,8.507-9.687,14.3c-1.397,5.793-1.737,11.882-4.022,17.385
							c-1.221-0.423-3.526,0.507-4.137,1.645c-0.611,1.138-0.653,2.485-0.677,3.776c-0.024,1.291-0.058,2.637-0.657,3.781
							c3.749,4.136,12.798,5.697,18.374,5.973c2.57-3.556,3.144-8.583,2.407-12.909c3.3-8.574,5.14-17.794,6.609-26.863
							c0.502-3.1-0.941-7.595-5.351-7.592C131.566,166.824,129.911,167.091,129.339,167.36z"/>
					</g>
				</g>
			</g>
			<path style="fill:#263238;" d="M144.462,137.874c5.47-2.925,9.533-8.357,10.792-14.431c4.277,1.191,7.946,4.322,9.579,8.451
				c1.53-2.664,1.031-6.212-0.885-8.614c-1.915-2.402-5.352-3.465-8.289-2.565c-2.35-0.435-5.005-1.261-7.147-0.203
				c-1.913,0.944-3.128,2.901-3.871,4.901C143.2,129.291,143.012,133.999,144.462,137.874z"/>
		</g>
		<g>
			<g>
				<path style="fill:#407BFF;" d="M210.548,162.359v0.66c0,0.43-0.27,0.79-0.64,0.92c-0.11,0.05-0.23,0.07-0.35,0.07h-18.6
					c-0.54,0-0.99-0.44-0.99-0.99v-0.66H210.548z"/>
			</g>
			<g style="opacity:0.4;">
				<path style="fill:#FFFFFF;" d="M210.548,162.359v0.66c0,0.43-0.27,0.79-0.64,0.92c-0.11,0.05-0.23,0.07-0.35,0.07h-18.6
					c-0.54,0-0.99-0.44-0.99-0.99v-0.66H210.548z"/>
			</g>
			<path style="fill:#263238;" d="M210.544,162.361h-20.578l8.035-3.077c0.48-0.184,0.99-0.278,1.504-0.278h19.8L210.544,162.361z"
				/>
			<g>
				<path style="fill:#407BFF;" d="M219.308,159.009v0.586c0,0.382-0.237,0.724-0.596,0.858l-8.804,3.486
					c0.37-0.13,0.64-0.49,0.64-0.92v-0.66L219.308,159.009z"/>
			</g>
		</g>
	</g>
</g>
</svg>
